<svg xmlns="http://www.w3.org/2000/svg" version="1.1" xmlns:xlink="http://www.w3.org/1999/xlink" width="1000" height="1000"><g clip-path="url(#SvgjsClipPath1223)"><rect width="1000" height="1000" fill="#ffffff"></rect><g transform="matrix(5.727312349860893,0,0,5.727312349860893,100.10673801116036,50)"><svg xmlns="http://www.w3.org/2000/svg" version="1.1" xmlns:xlink="http://www.w3.org/1999/xlink" width="139.6443" height="157.14177"><svg width="139.6443" zoomAndPan="magnify" viewBox="0 0 104.73323 117.85632" height="157.14177" preserveAspectRatio="xMidYMid" version="1.0" id="svg29" sodipodi:docname="Artanis-mark.svg" xml:space="preserve" inkscape:version="1.4.2 (1:1.4.2+202505120738+ebf0e940d0)" xmlns:inkscape="http://www.inkscape.org/namespaces/inkscape" xmlns:sodipodi="http://sodipodi.sourceforge.net/DTD/sodipodi-0.dtd" xmlns="http://www.w3.org/2000/svg" xmlns:svg="http://www.w3.org/2000/svg"><sodipodi:namedview id="namedview29" pagecolor="#505050" bordercolor="#eeeeee" borderopacity="1" inkscape:showpageshadow="0" inkscape:pageopacity="0" inkscape:pagecheckerboard="0" inkscape:deskcolor="#505050" showgrid="false" inkscape:zoom="1.7875659" inkscape:cx="215.65639" inkscape:cy="66.011552" inkscape:window-width="1916" inkscape:window-height="1037" inkscape:window-x="0" inkscape:window-y="20" inkscape:window-maximized="1" inkscape:current-layer="g36"></sodipodi:namedview><defs id="defs4"><clipPath id="SvgjsClipPath1223"><rect width="1000" height="1000" x="0" y="0" rx="250" ry="250"></rect></clipPath></defs><g id="g38" clip-path="none" mask="none" inkscape:export-filename="/home/amar/Downloads/g38.png" inkscape:export-xdpi="96" inkscape:export-ydpi="96" transform="translate(-10.996136,-34.915996)"><g id="g37"><g id="g36"><g transform="matrix(0.242354,0,0,0.242354,2.73033,33.49846)" id="g35" mask="none"><path style="fill:#1a1a1a;fill-opacity:1" d="m 244,491.28776 c -0.825,-0.30489 -10.725,-6.05582 -22,-12.77984 C 184.00298,455.8478 162.67371,443.35936 122.5,420.24993 42.582425,374.27833 42.830191,374.44012 38.36316,365.30984 34.464155,357.34056 33.821204,335.35767 34.200915,223 34.566794,114.73548 31.689704,127.36389 59.5,111.95468 67.75,107.3835 89.575,94.658564 108,83.677055 152.19696,57.335166 236.47437,9.124383 241.37573,7.3796447 251.67707,3.7126708 258.15148,5.885607 285.50655,22.190786 309.96759,36.770956 325.61432,45.796221 358,64.006087 c 12.925,7.267487 37.225,21.1982 54,30.95714 16.775,9.758943 33.53383,19.421183 37.24184,21.471653 8.18013,4.52348 13.33048,10.28613 15.32495,17.14688 3.11248,10.70656 1.55594,221.59033 -1.68661,228.50472 -4.62675,9.86608 -13.42151,15.64712 -104.88018,68.94067 -13.475,7.85196 -38.34528,22.5431 -55.26728,32.64696 C 255.36875,491.9544 251.15921,493.93355 244,491.28776 Z M 257.95295,462.024 c 2.1303,-1.08679 8.97487,-5.28207 15.21016,-9.32284 6.23529,-4.04077 20.78689,-12.89021 32.33689,-19.66542 11.55,-6.77522 22.25304,-13.07534 23.78453,-14.00029 2.78453,-1.68171 2.78453,-1.68171 -8.50036,-16.60858 -14.76384,-19.52857 -62.08342,-78.43274 -69.3005,-86.26634 -1.00511,-1.09099 -3.33812,1.41347 -12.57581,13.5 C 232.66988,337.82224 219.88485,354.175 210.49666,366 178.08834,406.82027 171,415.9467 171,416.85301 c 0,2.0354 6.47819,6.02509 52.92428,32.59419 11.23336,6.42594 21.34599,12.32912 22.47251,13.11817 2.83674,1.98693 6.98083,1.79279 11.55616,-0.54137 z M 161.9977,393.64511 c 7.62857,-10.63664 42.65824,-56.44033 126.55052,-165.4735 38.44633,-49.96795 46.43041,-60.5401 46.44189,-61.4962 0.0394,-3.28154 -125.37092,88.0952 -230.74011,168.12239 -35.513225,26.97206 -33.731321,25.2235 -28.5,27.96667 4.030079,2.11327 57.81861,33.56623 67.75,39.61696 8.34178,5.08225 8.71268,4.90707 18.4977,-8.73632 z m 197.51565,8.0147 C 362.25601,399.82271 372.15,394.14656 381.5,389.04615 410.48606,373.23429 429.25954,361.4678 428.79759,359.40186 428.63391,358.66989 405.1,340.60544 376.5,319.25863 309.07314,268.93178 296.65916,260 294.13835,260 c -2.0593,0 -30.62053,35.2721 -29.93048,36.96307 1.60996,3.94523 86.67217,107.98836 88.30548,108.01011 1.10734,0.0147 4.25734,-1.47627 7,-3.31337 z M 77.260286,326.71156 C 84.542129,321.05292 96.35,312.13332 103.5,306.89024 181.54709,249.65841 191,242.35434 191,239.28073 191,237.95174 173.3086,214.11996 115.17764,137.14174 99.230036,116.02359 102.98553,117.14168 82.808522,127.50477 59.770603,139.33726 60.020516,139.0627 59.918758,152.65121 59.874076,158.61804 59.714318,164.85 59.563741,166.5 c -0.548889,6.01466 1.279266,168.43696 1.907291,169.45313 1.165307,1.8855 2.401288,1.16208 15.789254,-9.24157 z M 440.99721,246.75524 C 442.25268,128.31296 444.54689,142.05433 421.51998,130.09479 397.1917,117.45935 402.15596,115.20893 375.40458,151 c -10.89382,14.575 -26.62914,35.05 -34.96737,45.5 -37.50005,46.99742 -36.22689,42.73197 -16.93721,56.74431 78.76412,57.21554 114.71806,82.11743 115.7921,80.19822 0.44078,-0.78762 1.20807,-39.7969 1.70511,-86.68729 z m -219.7922,-27.44475 c 12.54351,-8.56662 13.06329,-8.00654 -41.22715,-44.42362 -17.93908,-12.03323 -18.56603,-11.97266 -8.26306,0.79819 4.35504,5.39822 13.70111,17.91494 20.76904,27.81494 18.96265,26.56087 15.65012,24.73738 28.72117,15.81049 z M 268.5,184.85507 c 8.8,-6.32691 23.65,-16.8502 33,-23.38507 9.35,-6.53488 24.65,-17.25472 34,-23.82187 9.35,-6.56715 22.9625,-15.9325 30.25,-20.81188 15.92181,-10.66053 15.75701,-9.26597 2,-16.924357 C 361.5625,96.467376 346.825,87.721219 335,80.475989 311.9916,66.378642 280.83155,47.919723 264.43632,38.674735 248.32548,29.590109 250.28717,28.756279 155.5,84.978979 c -12.65,7.503306 -25.60975,15.123321 -28.79944,16.933371 -7.45289,4.22929 -7.8375,3.65519 11.37425,16.97838 29.30835,20.3251 82.36798,57.75219 96.57143,68.11934 16.60349,12.11896 13.7475,12.30076 33.85376,-2.155 z" id="path39"></path></g></g></g></g></svg></svg></g></g></svg>
